<svg width="24" height="" viewBox="0 0 32 32" fill="none" xmlns="http://www.w3.org/2000/svg">
<path d="M23.3333 6C20.7333 6 17.9333 6.53333 16 8C14.0667 6.53333 11.2667 6 8.66668 6C6.73334 6 4.68001 6.29333 2.96001 7.05333C1.98668 7.49333 1.33334 8.44 1.33334 9.52V24.56C1.33334 26.2933 2.96001 27.5733 4.64001 27.1467C5.94668 26.8133 7.33334 26.6667 8.66668 26.6667C10.7467 26.6667 12.96 27.0133 14.7467 27.8933C15.5467 28.2933 16.4533 28.2933 17.24 27.8933C19.0267 27 21.24 26.6667 23.32 26.6667C24.6533 26.6667 26.04 26.8133 27.3467 27.1467C29.0267 27.5867 30.6533 26.3067 30.6533 24.56V9.52C30.6533 8.44 30 7.49333 29.0267 7.05333C27.32 6.29333 25.2667 6 23.3333 6ZM28 22.9733C28 23.8133 27.2267 24.4267 26.4 24.28C25.4 24.0933 24.36 24.0133 23.3333 24.0133C21.0667 24.0133 17.8 24.88 16 26.0133V10.6667C17.8 9.53333 21.0667 8.66667 23.3333 8.66667C24.56 8.66667 25.7733 8.78667 26.9333 9.04C27.5467 9.17333 28 9.72 28 10.3467V22.9733Z" fill="url(#paint0_linear_7_146)"/>
<path d="M18.6399 14.68C18.2132 14.68 17.8265 14.4133 17.6932 13.9867C17.5199 13.4667 17.8132 12.8933 18.3332 12.7333C20.3865 12.0666 23.0399 11.8533 25.4799 12.1333C26.0265 12.2 26.4265 12.6933 26.3599 13.24C26.2932 13.7867 25.7999 14.1867 25.2532 14.12C23.0932 13.8667 20.7332 14.0667 18.9465 14.64C18.8399 14.6533 18.7332 14.68 18.6399 14.68Z" fill="url(#paint1_linear_7_146)"/>
<path d="M18.6399 18.2267C18.2132 18.2267 17.8265 17.9601 17.6932 17.5334C17.5199 17.0134 17.8132 16.4401 18.3332 16.2801C20.3732 15.6134 23.0399 15.4001 25.4799 15.6801C26.0265 15.7467 26.4265 16.2401 26.3599 16.7867C26.2932 17.3334 25.7999 17.7334 25.2532 17.6667C23.0932 17.4134 20.7332 17.6134 18.9465 18.1867C18.8399 18.2134 18.7332 18.2267 18.6399 18.2267Z" fill="url(#paint2_linear_7_146)"/>
<path d="M18.6399 21.7734C18.2132 21.7734 17.8265 21.5067 17.6932 21.08C17.5199 20.56 17.8132 19.9867 18.3332 19.8267C20.3732 19.16 23.0399 18.9467 25.4799 19.2267C26.0265 19.2934 26.4265 19.7867 26.3599 20.3334C26.2932 20.88 25.7999 21.2667 25.2532 21.2134C23.0932 20.96 20.7332 21.16 18.9465 21.7334C18.8399 21.76 18.7332 21.7734 18.6399 21.7734Z" fill="url(#paint3_linear_7_146)"/>
<defs>
<linearGradient id="paint0_linear_7_146" x1="15.9933" y1="6" x2="15.9933" y2="28.1933" gradientUnits="userSpaceOnUse">
<stop stop-color="#287AED"/>
<stop offset="1" stop-color="#4631E0"/>
</linearGradient>
<linearGradient id="paint1_linear_7_146" x1="22.0052" y1="12.0132" x2="22.0052" y2="14.68" gradientUnits="userSpaceOnUse">
<stop stop-color="#287AED"/>
<stop offset="1" stop-color="#4631E0"/>
</linearGradient>
<linearGradient id="paint2_linear_7_146" x1="22.0052" y1="15.5599" x2="22.0052" y2="18.2267" gradientUnits="userSpaceOnUse">
<stop stop-color="#287AED"/>
<stop offset="1" stop-color="#4631E0"/>
</linearGradient>
<linearGradient id="paint3_linear_7_146" x1="22.0052" y1="19.1067" x2="22.0052" y2="21.7734" gradientUnits="userSpaceOnUse">
<stop stop-color="#287AED"/>
<stop offset="1" stop-color="#4631E0"/>
</linearGradient>
</defs>
</svg>
