<svg width="32" height="32" viewBox="0 0 32 32" fill="none" xmlns="http://www.w3.org/2000/svg">
<path d="M16.8667 20.8934C17.0533 20.4134 16.9333 19.8667 16.56 19.4934L13.7733 16.7467L13.8133 16.7067C16.1333 14.1201 17.7867 11.1467 18.76 8.00008H21.3467C22.0667 8.00008 22.6667 7.40008 22.6667 6.68008V6.65341C22.6667 5.93341 22.0667 5.33341 21.3467 5.33341H13.3333V4.00008C13.3333 3.26675 12.7333 2.66675 12 2.66675C11.2667 2.66675 10.6667 3.26675 10.6667 4.00008V5.33341H2.65334C1.93334 5.33341 1.33334 5.93341 1.33334 6.65341C1.33334 7.38675 1.93334 7.97341 2.65334 7.97341H16.2267C15.3333 10.5601 13.92 13.0001 12 15.1334C10.92 13.9467 10.0133 12.6534 9.25334 11.2934C9.04001 10.9067 8.65334 10.6667 8.21334 10.6667C7.29334 10.6667 6.70668 11.6667 7.16001 12.4667C8.00001 13.9734 9.02668 15.4134 10.2267 16.7467L4.40001 22.4934C3.86668 23.0134 3.86668 23.8667 4.40001 24.3867C4.92001 24.9067 5.76001 24.9067 6.29334 24.3867L12 18.6667L14.6933 21.3601C15.3733 22.0401 16.5333 21.7867 16.8667 20.8934ZM23.3333 13.3334C22.5333 13.3334 21.8133 13.8267 21.5333 14.5867L16.64 27.6534C16.32 28.4667 16.9333 29.3334 17.8 29.3334C18.32 29.3334 18.7867 29.0134 18.9733 28.5201L20.16 25.3334H26.4933L27.6933 28.5201C27.88 29.0001 28.3467 29.3334 28.8667 29.3334C29.7333 29.3334 30.3467 28.4667 30.04 27.6534L25.1467 14.5867C24.8533 13.8267 24.1333 13.3334 23.3333 13.3334ZM21.1733 22.6667L23.3333 16.8934L25.4933 22.6667H21.1733Z" fill="url(#paint0_linear_9_12)"/>
<defs>
<linearGradient id="paint0_linear_9_12" x1="15.7267" y1="2.66675" x2="15.7267" y2="29.3334" gradientUnits="userSpaceOnUse">
<stop stop-color="#287AED"/>
<stop offset="1" stop-color="#4631E0"/>
</linearGradient>
</defs>
</svg>
